<svg xmlns="http://www.w3.org/2000/svg" viewBox="0 0 750 500">
    <g id="freepik--background-complete--inject-2">
        <path
            d="M93,157.1a5.83,5.83,0,0,0-6.31-.37A11.22,11.22,0,0,0,72,152a13.14,13.14,0,0,0-12.55-9.79A13.13,13.13,0,0,0,47.1,152.3a4.93,4.93,0,0,1-1,2.51c-1,1.06-2.77.7-4.24.59a10.48,10.48,0,0,0-10.57,7.37l63.89-.23A5.09,5.09,0,0,0,93,157.1Z"
            style="fill:#e6e6e6"></path>
        <path
            d="M243.94,93.47a4.17,4.17,0,0,0-4.5-.26,8,8,0,0,0-10.51-3.37,9.07,9.07,0,0,0-17.7.22,3.49,3.49,0,0,1-.67,1.79c-.74.75-2,.5-3,.42A7.45,7.45,0,0,0,200,97.51l45.47-.16A3.63,3.63,0,0,0,243.94,93.47Z"
            style="fill:#e6e6e6"></path>
        <path
            d="M402.72,239.41a4.16,4.16,0,0,0-4.49-.26,8,8,0,0,0-10.52-3.37A9.07,9.07,0,0,0,370,236a3.59,3.59,0,0,1-.68,1.79c-.74.75-2,.5-3,.42a7.46,7.46,0,0,0-7.52,5.24l45.48-.16A3.63,3.63,0,0,0,402.72,239.41Z"
            style="fill:#e6e6e6"></path>
        <path
            d="M700.76,117.11a5.38,5.38,0,0,0-5.84-.34,10.4,10.4,0,0,0-13.68-4.38,11.79,11.79,0,0,0-23,.28,4.6,4.6,0,0,1-.88,2.33c-1,1-2.56.65-3.92.54a9.71,9.71,0,0,0-9.79,6.82l59.14-.21A4.74,4.74,0,0,0,700.76,117.11Z"
            style="fill:#e6e6e6"></path>
        <path
            d="M561.29,44.81a3.79,3.79,0,0,0-4.1-.24,7.29,7.29,0,0,0-9.6-3.07,8.27,8.27,0,0,0-16.13.19,3.13,3.13,0,0,1-.62,1.64c-.67.68-1.79.45-2.75.38a6.8,6.8,0,0,0-6.86,4.78l41.48-.15A3.32,3.32,0,0,0,561.29,44.81Z"
            style="fill:#e6e6e6"></path>
    </g>
</svg>