<svg xmlns="http://www.w3.org/2000/svg" viewBox="0 0 750 500">
    <g id="freepik--floor--inject-272">
        <path
            d="M750,285.36s-33.16,1.44-44.61,6c-29.84,11.92-66.1,21.28-88.32,39.86-32.68,27.32-57.77,52.42-83.32,62.2-86.75,33.2-169.9,19-206.65,29.52-48.32,13.88-101.31,37.47-171.31,48.22-45.58,7-88.25-16.38-116.85-18.85-20.63-1.78-38.94,8-38.94,8V500H750Z"
            style="fill:#2E1065"></path>
        <g style="opacity:0.5">
            <path
                d="M750,285.36s-33.16,1.44-44.61,6c-29.84,11.92-66.1,21.28-88.32,39.86-32.68,27.32-57.77,52.42-83.32,62.2-86.75,33.2-169.9,19-206.65,29.52-48.32,13.88-101.31,37.47-171.31,48.22-45.58,7-88.25-16.38-116.85-18.85-20.63-1.78-38.94,8-38.94,8V500H750Z"></path>
        </g>
        <path
            d="M750,285.36v11.25s-31.67.1-38.65,1.09-20.29,8-27.08,13.18-40.43,11.1-44.75,13.89-16.63,20.15-20.32,22.92-37.21,22.51-39,25.5,3.86,18.09-6.85,23.28c-6,2.92-54.68,10.44-60.05,12.61-3.91,1.58-12.52,16.77-16.77,17.94-9.71,2.68-132.69,0-142,2s-14,9.32-23.95,9.2S248.79,455,232.9,458.14,163,478.94,149.06,479.6s-39.28-3.32-52.08-6.3-57-15-67.65-16.25S0,460.32,0,460.32s18.31-9.77,38.94-8c28.6,2.47,71.27,25.85,116.85,18.85,70-10.75,123-34.34,171.31-48.22,36.75-10.55,119.9,3.68,206.65-29.52,25.55-9.78,50.64-34.88,83.32-62.2,22.22-18.58,58.48-27.94,88.32-39.86C716.84,286.8,750,285.36,750,285.36Z"
            style="fill:#2E1065;opacity:0.30000000000000004"></path>
        <path
            d="M750,437.35s-89.13,9.64-96.41,10.28-51.8,23.67-58.28,25.12-59.62,8-64,7.37-87.55,1.88-92.17,2-66.95,10.61-71.82,11.34S0,500,0,500H750Z"
            style="opacity:0.1"></path>
        <path
            d="M0,465.39c2.23.27,86.48,25.5,92,26.59,8,1.59,112.08,1.61,118.77.53,15.94-2.57,137.25-36.9,140.16-36.88,3.18,0,90.44,16,94.1,16,5.13,0,61.94-31.93,66.05-31.1s72.38-8,81.69-10.06,56.58-48.64,65.33-50.85c7.68-1.94,72.71-7.69,91.93-10.26V315.1c-25,3.08-106.55,28.14-113.25,33.08-8.13,6-51.09,70.4-52.42,70.71s-68.74,5.57-73.28,6.32-63.46,32-65.74,34.26c-.51.51-69.45-18.67-83.5-17-40.23,4.8-138.37,35.85-148.29,37.89-12,2.46-110.91,1.9-121.33,1.9C83,482.27,2.3,461.47,0,461.19Z"
            style="opacity:0.1"></path>
        <g style="opacity:0.1">
            <path
                d="M724.61,312c-.14-4.65-9.72-6-11.54-5.53s-.53,6.91,3.42,8S724.67,314,724.61,312Z"></path>
            <path
                d="M273.77,462c4.07-1.72,2.29-5.26,1.27-5.66s-6.28,2.33-6,4S272,462.73,273.77,462Z"></path>
            <path
                d="M534.53,456.41c-1.34-2.62-7.2-.84-8.1-.06s1.56,4.1,4.1,3.65S535.11,457.55,534.53,456.41Z"></path>
            <path
                d="M707.23,312c-1.43.11-3.81,1.85-4.09,3.44s2.62,2.7,4.58,1.6S711.14,311.65,707.23,312Z"></path>
            <path
                d="M711.82,388.45c-1.43.11-3.81,1.85-4.09,3.44s2.62,2.7,4.58,1.6S715.73,388.13,711.82,388.45Z"></path>
            <path
                d="M59.7,465.94c1.43.11,3.81,1.86,4.09,3.44s-2.63,2.7-4.58,1.6S55.78,465.63,59.7,465.94Z"></path>
            <path
                d="M387.38,474.49c-1.43.11-3.8,1.85-4.09,3.44s2.63,2.7,4.58,1.6S391.3,474.17,387.38,474.49Z"></path>
            <path d="M327.81,471c1.26.69,4.2.52,5.3-.66s-.73-3.7-3-3.83S324.35,469.12,327.81,471Z"></path>
            <path
                d="M522.21,460.39c-1.43.12-3.81,1.86-4.09,3.45s2.63,2.7,4.58,1.59S526.13,460.08,522.21,460.39Z"></path>
            <path d="M388.81,483.33c1.31.6.85,3.17-1.35,2.52S387.11,482.56,388.81,483.33Z"></path>
            <path d="M655.63,392c1.31.59.85,3.16-1.35,2.51S653.92,391.24,655.63,392Z"></path>
            <path d="M214.71,466.52c1.31.6.85,3.16-1.35,2.52S213,465.75,214.71,466.52Z"></path>
            <path d="M650.58,334.44c.5-.82,2.18-.31,1.57,1.1S649.93,335.51,650.58,334.44Z"></path>
            <path d="M267.35,455.64c.5-.83,2.18-.31,1.57,1.1S266.7,456.71,267.35,455.64Z"></path>
            <path d="M718.9,390.53c.5-.82,2.17-.31,1.56,1.11S718.24,391.6,718.9,390.53Z"></path>
            <path d="M648.35,391.23c.51-.83,2.18-.31,1.57,1.1S647.7,392.3,648.35,391.23Z"></path>
            <path d="M433.7,442.15c.5-.82,2.17-.31,1.56,1.1S433,443.22,433.7,442.15Z"></path>
            <path d="M222.36,471.6c.5-.82,2.17-.31,1.56,1.11S221.7,472.67,222.36,471.6Z"></path>
            <path d="M713.54,317.75c.51-.82,2.18-.31,1.57,1.11S712.89,318.82,713.54,317.75Z"></path>
            <path
                d="M33.88,485.58c-.14-4.65-9.72-6-11.54-5.53s-.53,6.91,3.42,8S33.94,487.6,33.88,485.58Z"></path>
            <path
                d="M16.49,485.6c-1.43.11-3.8,1.85-4.08,3.44s2.62,2.7,4.57,1.6S20.41,485.28,16.49,485.6Z"></path>
            <path d="M83.3,493.65c.5-.82,2.18-.31,1.57,1.1S82.65,494.72,83.3,493.65Z"></path>
            <path d="M395,479.22c1.07.58.53,2-.74,1.58A.89.89,0,1,1,395,479.22Z"></path>
            <path d="M591.63,369.75c.38-.74,1.38-.39,1.09.49A.61.61,0,1,1,591.63,369.75Z"></path>
            <path d="M278.27,456.69c.39-.74,1.39-.39,1.1.49A.62.62,0,1,1,278.27,456.69Z"></path>
            <path d="M652.75,396.49c.39-.75,1.39-.39,1.1.49A.61.61,0,1,1,652.75,396.49Z"></path>
            <path d="M412.35,472c.38-.74,1.38-.39,1.09.49A.61.61,0,1,1,412.35,472Z"></path>
            <path d="M519.73,454.06c.39-.74,1.39-.39,1.1.49A.62.62,0,1,1,519.73,454.06Z"></path>
            <path d="M599.32,372.5c1.74,1,.09,5.87-4.13,3.41S596.24,370.79,599.32,372.5Z"></path>
        </g>
        <path
            d="M0,363.18s122.88,25.34,188.5,50.45c86.75,33.2,138.5-3.92,263,25.12,70.73,16.5,145.47-18.45,172.88-24.24,45.37-9.6,125.62-12,125.62-12V500H0Z"
            style="fill:#2E1065"></path>
        <path
            d="M0,363.18s122.88,25.34,188.5,50.45c86.75,33.2,138.5-3.92,263,25.12,70.73,16.5,145.47-18.45,172.88-24.24,45.37-9.6,125.62-12,125.62-12V500H0Z"
            style="opacity:0.6000000000000001"></path>
        <path
            d="M0,437.35S89.13,447,96.41,447.63s51.8,23.67,58.28,25.12,59.62,8,64,7.37,87.55,1.88,92.17,2,66.95,10.61,71.82,11.34S750,500,750,500H0Z"
            style="opacity:0.1"></path>
        <path
            d="M750,457c-2.23.19-120.84-.28-126.33.47-8,1.09-111.85,20.22-118.55,19.48-15.94-1.76-127.21-15.83-130.12-15.81-3.17,0-88.08,3.73-91.74,3.71-5.13,0-40.2-13.48-44.31-12.91s-72.38-5.49-81.69-6.91-56.95-26.11-65.7-27.63c-7.68-1.33-74.77-6.66-91.56-5.95V394.36c23.41-1.3,88.77,3.45,95.47,6.84,8.13,4.11,62.79,40,64.12,40.22s74.82-.52,79.36,0S280.67,455,283,456.5c.51.35,65.81-9.61,79.86-8.46,40.23,3.3,129.61,19.17,139.54,20.57,12,1.69,110.68-17.82,121.1-17.82,9.18,0,124.25,3.51,126.55,3.32Z"
            style="opacity:0.1"></path>
        <g style="opacity:0.1">
            <path
                d="M39.35,421.77c.15-4.65,9.73-6,11.54-5.52s.53,6.9-3.42,8S39.29,423.79,39.35,421.77Z"></path>
            <path
                d="M493.46,486c-4.07-1.72-2.29-5.27-1.27-5.66s6.28,2.32,6,4S495.22,486.78,493.46,486Z"></path>
            <path
                d="M279.71,470.74c1.33-2.62,7.19-.84,8.1-.06s-1.56,4.1-4.11,3.65S279.13,471.88,279.71,470.74Z"></path>
            <path
                d="M56.74,421.79c1.43.11,3.8,1.85,4.09,3.44s-2.63,2.7-4.58,1.6S52.82,421.48,56.74,421.79Z"></path>
            <path
                d="M120.35,434.61c1.43.12,3.81,1.86,4.09,3.45s-2.63,2.7-4.58,1.59S116.43,434.3,120.35,434.61Z"></path>
            <path
                d="M679.08,472.65c-1.43.11-3.81,1.86-4.09,3.44s2.63,2.7,4.58,1.6S683,472.34,679.08,472.65Z"></path>
            <path
                d="M667.53,431.82c1.43.12,3.81,1.86,4.09,3.45S669,438,667,436.86,663.61,431.51,667.53,431.82Z"></path>
            <path d="M436.16,494c-1.27.69-4.21.52-5.31-.66s.74-3.7,3-3.83S439.61,492.13,436.16,494Z"></path>
            <path
                d="M292,474.73c1.43.11,3.8,1.85,4.08,3.44s-2.62,2.7-4.57,1.6S288.11,474.41,292,474.73Z"></path>
            <path d="M666.1,440.67c-1.31.59-.85,3.16,1.35,2.51S667.8,439.9,666.1,440.67Z"></path>
            <path d="M175.23,462.28c-1.3.59-.85,3.16,1.35,2.51S176.94,461.5,175.23,462.28Z"></path>
            <path d="M615.94,474.14c-1.31.6-.85,3.17,1.35,2.52S617.64,473.37,615.94,474.14Z"></path>
            <path d="M160.77,422.13c-.5-.82-2.17-.31-1.56,1.1S161.43,423.2,160.77,422.13Z"></path>
            <path d="M496.61,478.64c-.5-.82-2.17-.31-1.56,1.1S497.26,479.71,496.61,478.64Z"></path>
            <path d="M113.27,436.7c-.5-.82-2.18-.31-1.57,1.1S113.92,437.77,113.27,436.7Z"></path>
            <path d="M182.51,461.49c-.5-.83-2.17-.31-1.56,1.1S183.16,462.56,182.51,461.49Z"></path>
            <path d="M349.53,479.56c-.5-.82-2.17-.31-1.56,1.11S350.18,480.63,349.53,479.56Z"></path>
            <path d="M608.29,479.22c-.5-.82-2.17-.3-1.56,1.11S608.94,480.3,608.29,479.22Z"></path>
            <path d="M50.42,427.57c-.5-.82-2.18-.31-1.57,1.11S51.07,428.64,50.42,427.57Z"></path>
            <path
                d="M699.2,482.38c.14-4.65,9.72-6,11.54-5.52s.53,6.91-3.42,8S699.14,484.4,699.2,482.38Z"></path>
            <path
                d="M716.58,482.4c1.44.11,3.81,1.86,4.09,3.45s-2.62,2.7-4.58,1.59S712.67,482.09,716.58,482.4Z"></path>
            <path d="M735.86,439.7c-.5-.82-2.17-.3-1.56,1.11S736.51,440.78,735.86,439.7Z"></path>
            <path d="M660,436.56c-1.07.58-.53,2,.75,1.58A.89.89,0,1,0,660,436.56Z"></path>
            <path d="M187.92,428.37c-.38-.75-1.38-.39-1.09.49A.61.61,0,1,0,187.92,428.37Z"></path>
            <path d="M491.43,476.6c-.39-.74-1.39-.39-1.1.49A.62.62,0,1,0,491.43,476.6Z"></path>
            <path d="M178.11,466.75c-.38-.75-1.38-.39-1.09.49A.61.61,0,1,0,178.11,466.75Z"></path>
            <path d="M365.47,486.16c-.38-.75-1.38-.39-1.09.49A.61.61,0,1,0,365.47,486.16Z"></path>
            <path d="M294.5,468.39c-.38-.74-1.38-.39-1.09.49A.61.61,0,1,0,294.5,468.39Z"></path>
            <path d="M180.23,431.11c-1.74,1-.09,5.87,4.12,3.42S183.31,429.41,180.23,431.11Z"></path>
        </g>
        <path
            d="M750,402.49v17c0,1.43-9.26-6-34.33-5.31-2.87.08-7.62,9.87-10.5,10.66-7,1.92-25-1.9-27.19-1.84-26.27.64-42.17,1-48.28,2.1-13.25,2.4-94.49,27.8-128.82,27.24s-108.44-18.61-127-20.64-96.24,2.62-144.47-2.62c-13.42-1.45-43.7-4.91-53.42-7.18-25.22-5.9-21-12.24-35.38-17.4C120.6,397.31,0,377.79,0,377.79V363.18s122.88,25.34,188.5,50.45c86.75,33.2,138.5-3.92,263,25.12C522.23,455.26,597,420.3,624.38,414.5,669.75,404.91,750,402.49,750,402.49Z"
            style="fill:#2E1065;opacity:0.4"></path>
    </g>

</svg>