<svg xmlns="http://www.w3.org/2000/svg" viewBox="0 0 750 500">
    <g id="freepik--Water--inject-2">
        <path
            d="M51.82,422.13H709s12,10.39-97.59,10.8c-15.51.06,43.79,13.64-24.79,14.91-32.05.59-162.16.54-167.65,2.65s64.62,2.12,26.37,8.47-219.82,5.5-198.36,0,49-6.35,44.05-8.89c-9.26-4.75-43.51-6-98-7.3C68.15,439.72,3.14,425.18,51.82,422.13Z"
            style="fill:#BEF264"></path>
        <path
            d="M51.82,422.13H709s12,10.39-97.59,10.8c-15.51.06,43.79,13.64-24.79,14.91-32.05.59-162.16.54-167.65,2.65s64.62,2.12,26.37,8.47-219.82,5.5-198.36,0,49-6.35,44.05-8.89c-9.26-4.75-43.51-6-98-7.3C68.15,439.72,3.14,425.18,51.82,422.13Z"
            style="fill:#fff;opacity:0.1"></path>
        <ellipse cx="669.37" cy="452.23" rx="32.1" ry="7.83" style="fill:#FDBA74"></ellipse>
        <ellipse cx="669.37" cy="452.23" rx="32.1" ry="7.83"
            style="fill:#fff;opacity:0.7000000000000001"></ellipse>
    </g>
    <g id="freepik--alien-plants-4--inject-2">
        <path
            d="M480.35,203.27c2.4,17.76,7.07,36.79,21.58,48.68a36.67,36.67,0,0,0,23,8.51c9.28.07,18.36-3,26.31-7.65,9.37-5.44,17.37-12.84,25.27-20.17.36-.32-.17-.85-.53-.53-13.43,12.44-28.26,25.9-47.41,27.46a35.91,35.91,0,0,1-24.13-6.6,49.25,49.25,0,0,1-15.36-19.07c-4.59-9.67-6.63-20.3-8.05-30.83-.06-.48-.79-.27-.72.2Z"
            style="fill:#BEF264"></path>
        <path
            d="M480.35,203.27c2.4,17.76,7.07,36.79,21.58,48.68a36.67,36.67,0,0,0,23,8.51c9.28.07,18.36-3,26.31-7.65,9.37-5.44,17.37-12.84,25.27-20.17.36-.32-.17-.85-.53-.53-13.43,12.44-28.26,25.9-47.41,27.46a35.91,35.91,0,0,1-24.13-6.6,49.25,49.25,0,0,1-15.36-19.07c-4.59-9.67-6.63-20.3-8.05-30.83-.06-.48-.79-.27-.72.2Z"
            style="opacity:0.30000000000000004"></path>
        <path
            d="M605.14,228c8,16.18,18.51,32.76,36.19,39.4a36.65,36.65,0,0,0,25.53.23c8.23-3,15.37-8.5,21.14-15,7.22-8.17,12.49-17.79,17.69-27.31.24-.43-.41-.81-.64-.38-8.59,15.71-18,32.64-35,40.57a36.08,36.08,0,0,1-25.47,2.2c-8.53-2.45-16-7.68-22.05-14.11-7.08-7.58-12.21-16.71-16.76-26-.22-.43-.86-.05-.65.38Z"
            style="fill:#BEF264"></path>
        <path
            d="M605.14,228c8,16.18,18.51,32.76,36.19,39.4a36.65,36.65,0,0,0,25.53.23c8.23-3,15.37-8.5,21.14-15,7.22-8.17,12.49-17.79,17.69-27.31.24-.43-.41-.81-.64-.38-8.59,15.71-18,32.64-35,40.57a36.08,36.08,0,0,1-25.47,2.2c-8.53-2.45-16-7.68-22.05-14.11-7.08-7.58-12.21-16.71-16.76-26-.22-.43-.86-.05-.65.38Z"
            style="opacity:0.30000000000000004"></path>
        <path
            d="M531.36,217.68c1.56,11.72,2.42,23.51,4.36,35.18.91,5.46,1.88,11.1,3.95,16.27a45.64,45.64,0,0,0,12,16.39,37,37,0,0,0,20.5,9.39c8.53.94,17.2-1.11,24.92-4.69A67.24,67.24,0,0,0,609,282.71c4.82-3.63,9.49-7.47,14-11.42,5-4.35,9.94-8.84,14.66-13.53A125.2,125.2,0,0,0,649,245.39c.65-.84,1.27-1.69,1.86-2.57.27-.41-.38-.78-.65-.38A85.39,85.39,0,0,1,640.43,254c-4.39,4.55-9,8.9-13.7,13.11s-9.37,8.18-14.25,12a111.64,111.64,0,0,1-11.39,8.19,50,50,0,0,1-21.88,7,35.77,35.77,0,0,1-22.93-6.09A47.53,47.53,0,0,1,541.33,271c-2.31-4.4-3.28-9.57-4.19-14.41-2.26-11.89-3.27-24-4.67-36-.12-1-.23-1.93-.36-2.9-.07-.47-.82-.48-.75,0Z"
            style="fill:#BEF264"></path>
        <path
            d="M573.24,362.45s43.91,4.75,47.47,27.29,0,34.41,0,34.41h-71.2s4.75-19,0-29.66-31.53-10.9-43.83-36.83c-12.42-26.16-.08-42.68,5.86-49.8s40.34-38,51-54.58,0-35.6,0-35.6h29.67s19,16.61,0,32C581.42,258.5,555.37,281,541.15,300c-.11.16-.23.32-.35.47-15.58,21.14-4.57,51.49,20.65,58.79Q566.7,360.8,573.24,362.45Z"
            style="fill:#263238"></path>
        <path
            d="M735,201.82c-1.14-7.23-7.75-12.46-14.63-15s-14.33-3-21.36-5.06c-2.43-.7-4.93-1.67-6.53-3.64-2.74-3.38-1.87-8.31-2.72-12.58-1.27-6.37-6.6-11.33-12.57-13.9s-12.58-3.14-19-3.69L572,140.76c-12.54-1.06-26-1.9-36.79,4.65C527.62,150,522.18,158,514,161.3c-12.38,5-26.47-1.85-39.71,0-2.93.41-6,1.4-7.75,3.82a29.5,29.5,0,0,0-1.11,25.28,50.72,50.72,0,0,0,16.67,20c11.88,8.56,26.27,12.76,40.38,16.67C571.21,240.6,622,252.63,672,244.77c19.67-3.09,39.54-9.66,53.94-23.41C731.36,216.21,736.13,209.2,735,201.82ZM553,163.24c-7.49,0-13.56-3-13.56-6.72s6.07-6.72,13.56-6.72,13.56,3,13.56,6.72S560.46,163.24,553,163.24Z"
            style="fill:#FDBA74"></path>
        <g style="opacity:0.4">
            <path
                d="M735,201.82c-1.14-7.23-7.75-12.46-14.63-15s-14.33-3-21.36-5.06c-2.43-.7-4.93-1.67-6.53-3.64-2.74-3.38-1.87-8.31-2.72-12.58-1.27-6.37-6.6-11.33-12.57-13.9s-12.58-3.14-19-3.69L572,140.76c-12.54-1.06-26-1.9-36.79,4.65C527.62,150,522.18,158,514,161.3c-12.38,5-26.47-1.85-39.71,0-2.93.41-6,1.4-7.75,3.82a29.5,29.5,0,0,0-1.11,25.28,50.72,50.72,0,0,0,16.67,20c11.88,8.56,26.27,12.76,40.38,16.67C571.21,240.6,622,252.63,672,244.77c19.67-3.09,39.54-9.66,53.94-23.41C731.36,216.21,736.13,209.2,735,201.82ZM553,163.24c-7.49,0-13.56-3-13.56-6.72s6.07-6.72,13.56-6.72,13.56,3,13.56,6.72S560.46,163.24,553,163.24Z"
                style="fill:#fff"></path>
        </g>
        <g style="opacity:0.30000000000000004">
            <path
                d="M733.61,197.83a33.07,33.07,0,0,1-7.69,10.56c-14.41,13.75-34.28,20.32-53.95,23.41-50,7.86-100.8-4.17-149.56-17.69-14.11-3.91-28.5-8.1-40.38-16.67a50.72,50.72,0,0,1-16.67-20,27.1,27.1,0,0,1-1.48-4.85,28.46,28.46,0,0,0,1.48,17.82,50.72,50.72,0,0,0,16.67,20c11.88,8.56,26.27,12.76,40.38,16.67C571.17,240.6,622,252.63,672,244.77c19.67-3.09,39.54-9.66,53.95-23.41,5.4-5.15,10.18-12.16,9-19.54A14.4,14.4,0,0,0,733.61,197.83Z"></path>
        </g>
        <g style="opacity:0.30000000000000004">
            <path
                d="M645.25,185.38c-17.31,2.35-34.88.08-52.2-2.19.61,3.73,3.47,6.8,6.79,8.62s7.1,2.59,10.82,3.33a167.07,167.07,0,0,0,46.65,2.46c18.35-1.79,28.76-9,39.32-16.68a9.89,9.89,0,0,1-4.19-2.76c-2.74-3.38-1.87-8.31-2.72-12.58C679.3,179.6,662.57,183,645.25,185.38Z"></path>
        </g>
        <path
            d="M543.6,373.87s5.9,9.77,5.18,11.93-5.18,6.51-5.18,6.51S529,380,525.71,379.66s-17,5.78-17,5.78l-10.48,21,19.43,5.19-1.73-21.46,9.81-1.8L543,399.17l12.64-2.89,6.74-11.2Z"
            style="fill:#263238"></path>
        <polygon
            points="623.03 405.35 637.02 389.9 661.04 396.11 673.92 422.13 691.08 422.13 667.73 389.9 637.12 381.2 618.78 392.97 623.03 405.35"
            style="fill:#263238"></polygon>
        <path
            d="M537.38,338.8s2.36,12.37,13.27,18c7.8,4,20.59,9.16,20.59,9.57s.63,10.9,3.12,9.61,3.54-11.49,4.58-7,.62,25.49,3.95,23.41,2.71-18.11,5.62-18.52.62,9.57,5.2,11.65,4.52-6.93,4.9-9.14c.89-5.19,6.75-5.74,7.79-.38s1.45,13.53,3.32,10.69.54-11.86.54-11.86-1.38-2.46-7.29-4.9c-10.35-4.26-26.29-7.16-36.27-9.56C557.55,358.17,543.89,350.71,537.38,338.8Z"
            style="fill:#BEF264"></path>
        <path
            d="M588.16,360.76a1,1,0,0,0-.79.14,6.29,6.29,0,0,0-2.46,2.26,44.77,44.77,0,0,0-1.36-7.52,10.47,10.47,0,0,0-1.91,7.25c-.66-.84-1.33-1.67-2-2.51-.17-.22-.4-.46-.67-.42s-.48.59-.44,1a10.36,10.36,0,0,0,1.42,4.22l6.23,1.62,2.11-4.53C588.53,361.74,588.68,361,588.16,360.76Z"
            style="fill:#BEF264"></path>
    </g>
    <g id="freepik--alien-plants-3--inject-2">
        <path
            d="M364.41,383.78c0-.27,3.74-7.37,3-8.72s-4.48,2.92-7.56,2.22c-1.47-.33-4.17-3.19-4.17-3.19l2.1-3.77s2,3.71,3,4.13,5.71-2.35,8.29-1.19,2.05,2.53,1.43,6.26-1,9.16-1,9.16Z"
            style="fill:#263238"></path>
        <path
            d="M290.65,328s5.92-4.31,7.9-6.47,1.53-8.32,1.53-8.32L303,310s1.79,11.88-1,13.79L285.4,335.34Z"
            style="fill:#263238"></path>
        <path
            d="M281.44,311.16s7.38,11,6.23,15.54-11.36,18.53-11.36,18.53-6.58,10.09-4.74,12.73c5.71,8.2,20.47,36.53,25,39.2s48.18-3.84,54.83,2.66,7.73,13,7.73,13l26.68-10.08s-12.07-11.54-20.1-19.86-60.51,0-60.51,0-27.65-21.66-27-27.23,12-17.06,14.95-28.42,1.77-19,1.77-19Z"
            style="fill:#263238"></path>
        <path
            d="M371.12,311.57c-3-1.31-13.37,9.3-15.69,11.6s-4.31,5.16-7.34,6.38c-2.51,1-5.32.73-8,.76A40.06,40.06,0,0,0,320,336.25c-6.16,3.7-20.23,13-24.49,18.1l32.05,2.42s24.88-8,25.31-8.28,11.28-17.68,11.28-17.68Z"
            style="fill:#FDBA74"></path>
        <g style="opacity:0.30000000000000004">
            <path
                d="M371.12,311.57c-3-1.31-13.37,9.3-15.69,11.6s-4.31,5.16-7.34,6.38c-2.51,1-5.32.73-8,.76A40.42,40.42,0,0,0,320,336.25c-6.07,3.6-20.19,12.88-24.72,18.3l32.28,2.22s24.88-8,25.31-8.28,11.28-17.68,11.28-17.68Z"></path>
        </g>
        <path d="M345.58,345a27.72,27.72,0,0,1-.37-27.49l.87.49a26.68,26.68,0,0,0,.36,26.48Z"
            style="fill:#263238"></path>
        <path
            d="M340.61,347.73a60.74,60.74,0,0,0-23.85-27.82l.52-.85a61.67,61.67,0,0,1,24.25,28.28Z"
            style="fill:#263238"></path>
        <path d="M335.81,347.48A25.74,25.74,0,0,0,314,334.07l0-1A26.78,26.78,0,0,1,336.7,347Z"
            style="fill:#263238"></path>
        <path
            d="M321.91,363.61s10.92,4.57,18.56,10.15a15.17,15.17,0,0,0,11.83,2.66l.18,0a15.18,15.18,0,0,0,11.2-9.24l.1-.24a15.32,15.32,0,0,0,.58-9.53c-1.18-4.56-2.56-11.31-1.51-14.8L334,351.18Z"
            style="fill:#FDBA74"></path>
        <path
            d="M324,364.94l3.13.69A119.27,119.27,0,0,0,350,354.54a65.61,65.61,0,0,0,12.38-10.17l.58-2.12Z"
            style="opacity:0.30000000000000004"></path>
        <path d="M316.25,332.24a2.31,2.31,0,1,1-3.22-.56A2.31,2.31,0,0,1,316.25,332.24Z"
            style="fill:#263238"></path>
        <path d="M319.05,317.84a2.31,2.31,0,1,1-3.22-.56A2.31,2.31,0,0,1,319.05,317.84Z"
            style="fill:#263238"></path>
        <path d="M319.48,324.54a1.16,1.16,0,1,1-1.61-.28A1.15,1.15,0,0,1,319.48,324.54Z"
            style="fill:#BEF264"></path>
        <path d="M348.15,321.84a1.16,1.16,0,1,1-1.62-.28A1.16,1.16,0,0,1,348.15,321.84Z"
            style="fill:#BEF264"></path>
        <path d="M340.16,319.12a1.16,1.16,0,1,1-1.61-.28A1.15,1.15,0,0,1,340.16,319.12Z"
            style="fill:#BEF264"></path>
        <path
            d="M320.57,315.5a.66.66,0,0,1-.16.92.67.67,0,0,1-.93-.16.66.66,0,0,1,.16-.92A.67.67,0,0,1,320.57,315.5Z"
            style="fill:#BEF264"></path>
        <path d="M316.1,324.22a.36.36,0,0,1-.09.52.38.38,0,1,1-.43-.62A.36.36,0,0,1,316.1,324.22Z"
            style="fill:#BEF264"></path>
        <path d="M321.12,318a.37.37,0,0,1-.09.53.38.38,0,0,1-.53-.09.38.38,0,0,1,.62-.44Z"
            style="fill:#BEF264"></path>
        <path
            d="M342.24,315.33a.67.67,0,0,1-.16.93.66.66,0,0,1-.92-.16.67.67,0,0,1,.16-.93A.66.66,0,0,1,342.24,315.33Z"
            style="fill:#BEF264"></path>
        <path d="M342.8,317.86a.38.38,0,0,1-.62.43.38.38,0,0,1,.09-.53A.38.38,0,0,1,342.8,317.86Z"
            style="fill:#BEF264"></path>
        <path d="M348.08,316.09a2.32,2.32,0,1,1-3.23-.56A2.32,2.32,0,0,1,348.08,316.09Z"
            style="fill:#263238"></path>
        <path
            d="M372,311.5c-2.16-.87-4.43.95-5.9,2.76-4,4.9-6.64,10.73-9.91,16.14S348.82,341,343,343.6c-8.19,3.63-17.67,1.18-26.61,1.92a37.59,37.59,0,0,0-30,20.36l1.39,1.3c4.81,3,10.93,2.83,16.57,2.09a110.88,110.88,0,0,0,51.36-20.77c5.24-3.89,10.2-8.32,13.8-13.76s5.78-12,5.1-18.51C374.44,314.35,373.79,312.22,372,311.5Zm-65.78,49.78a3.65,3.65,0,0,1-2.11,3.67,8.92,8.92,0,0,1-4.44.7c-2.08-.06-3.59-.08-5.16-1.15a2.35,2.35,0,0,1-.82-1,2.31,2.31,0,0,1-.08-1.73,5,5,0,0,1,2.49-2.66,10.17,10.17,0,0,1,4.7-.85,8.33,8.33,0,0,1,3.29.57A3.58,3.58,0,0,1,306.26,361.28Zm4.36.6a3,3,0,0,1-.24,1.15,1.83,1.83,0,0,1-.89.93,1,1,0,0,1-1.28-.34,2.48,2.48,0,0,1-.2-1.4,3.34,3.34,0,0,1,.46-1.82,1.19,1.19,0,0,1,.37-.37,1,1,0,0,1,.61-.19,1.16,1.16,0,0,1,.92.57A2.71,2.71,0,0,1,310.62,361.88ZM372,326.16a3.32,3.32,0,0,1-1.9,2,2.52,2.52,0,0,1-2,.06,2.29,2.29,0,0,1-1.13-2.41,3.91,3.91,0,0,1,1.5-2.26,2.39,2.39,0,0,1,2.85,0A2.51,2.51,0,0,1,372,326.16Z"
            style="fill:#FDBA74"></path>
        <path
            d="M378.43,272.4c-1.15-5-24.18-8.07-29.24-8.83s-10.5-.58-14.88-3.24c-3.62-2.2-5.9-6-8.46-9.36a62.92,62.92,0,0,0-26.25-19.62c-10.4-4.27-35.2-13.25-45.63-13.78l27,42.48s33.31,23.75,34.09,24,32.75-2.4,32.75-2.4Z"
            style="fill:#BEF264"></path>
        <g style="opacity:0.30000000000000004">
            <path
                d="M378.43,272.4c-1.15-5-24.18-8.07-29.24-8.83s-10.5-.58-14.88-3.24c-3.62-2.2-5.9-6-8.46-9.36-6.69-8.79-16.05-15.37-26.25-19.62s-35.06-13.28-46.1-13.89l27.43,42.59s33.31,23.75,34.09,24,32.75-2.4,32.75-2.4Z"></path>
        </g>
        <path
            d="M313.79,272.1l-.93-.37a43.14,43.14,0,0,1,33.92-26l.13,1A42.13,42.13,0,0,0,313.79,272.1Z"
            style="fill:#263238"></path>
        <path
            d="M305.6,268.61l-.86-.51A95.37,95.37,0,0,0,317.36,212l1-.09A96.26,96.26,0,0,1,305.6,268.61Z"
            style="fill:#263238"></path>
        <path
            d="M301.48,262.26l-.9-.43a40.61,40.61,0,0,0-3.65-40.25l.81-.59A41.65,41.65,0,0,1,301.48,262.26Z"
            style="fill:#263238"></path>
        <path
            d="M267.06,259.37s4.48,18,4.63,32.79a23.8,23.8,0,0,0,7.74,17.34l.22.19a23.71,23.71,0,0,0,22.07,5.4l.4-.1a23.94,23.94,0,0,0,12.5-8.18c4.62-5.77,11.79-13.81,17.16-15.76L294,262.9Z"
            style="fill:#BEF264"></path>
        <path
            d="M267.37,263.27l2.07,4.57a186.24,186.24,0,0,0,35.26,18.22,103.53,103.53,0,0,0,24.35,6l3.21-1.26Z"
            style="opacity:0.30000000000000004"></path>
        <path d="M301.13,222.9a3.63,3.63,0,1,1-2.32-4.58A3.61,3.61,0,0,1,301.13,222.9Z"
            style="fill:#263238"></path>
        <path d="M321.82,212.93a3.63,3.63,0,1,1-2.32-4.57A3.64,3.64,0,0,1,321.82,212.93Z"
            style="fill:#263238"></path>
        <path d="M313.82,219.74a1.81,1.81,0,1,1-1.16-2.29A1.8,1.8,0,0,1,313.82,219.74Z"
            style="fill:#BEF264"></path>
        <path d="M344,253.18a1.81,1.81,0,1,1-1.16-2.29A1.81,1.81,0,0,1,344,253.18Z"
            style="fill:#BEF264"></path>
        <path d="M340,240.61a1.81,1.81,0,1,1-1.16-2.29A1.81,1.81,0,0,1,340,240.61Z"
            style="fill:#BEF264"></path>
        <path d="M326.18,212.63a1,1,0,1,1-.67-1.31A1,1,0,0,1,326.18,212.63Z" style="fill:#BEF264"></path>
        <path d="M311.06,215.2a.59.59,0,0,1-1.13-.37.58.58,0,0,1,.75-.38A.59.59,0,0,1,311.06,215.2Z"
            style="fill:#BEF264"></path>
        <path
            d="M323.54,215.69a.59.59,0,0,1-.75.38.58.58,0,0,1-.38-.75.59.59,0,0,1,.75-.38A.6.6,0,0,1,323.54,215.69Z"
            style="fill:#BEF264"></path>
        <path d="M346.68,239.68a1,1,0,1,1-.67-1.31A1,1,0,0,1,346.68,239.68Z" style="fill:#BEF264"></path>
        <path d="M344,242.74a.59.59,0,1,1-1.13-.37.6.6,0,0,1,.75-.38A.58.58,0,0,1,344,242.74Z"
            style="fill:#BEF264"></path>
        <path d="M351.19,247.72a3.63,3.63,0,1,1-2.32-4.58A3.61,3.61,0,0,1,351.19,247.72Z"
            style="fill:#263238"></path>
        <path
            d="M379.38,273.49c-.92-3.54-5.33-4.68-9-4.83-9.89-.42-19.68,1.72-29.53,2.69s-20.3.65-28.92-4.2c-12.23-6.89-18-21.08-27.31-31.6A58.88,58.88,0,0,0,231,217l-.33,3c.7,8.88,6.68,16.38,12.89,22.76a173.65,173.65,0,0,0,74.16,45c9.79,2.93,20,5,30.19,4.43s20.49-4,28-10.93C378.06,279.16,380.12,276.35,379.38,273.49Zm-124-36c-1.61,1.74-4.46,1.83-6.59.79a14.07,14.07,0,0,1-5-4.91c-1.86-2.67-3.26-4.59-3.38-7.55a3.71,3.71,0,0,1,.49-2,3.6,3.6,0,0,1,2.08-1.71,7.92,7.92,0,0,1,5.68.63,16,16,0,0,1,5.46,5.1,13.07,13.07,0,0,1,2.37,4.67A5.59,5.59,0,0,1,255.33,237.54Zm3.33,6a4.7,4.7,0,0,1-1.66.77,2.87,2.87,0,0,1-2-.24,1.56,1.56,0,0,1-.77-1.93,3.86,3.86,0,0,1,1.57-1.56,5.28,5.28,0,0,1,2.72-1.13,2,2,0,0,1,.81.12,1.61,1.61,0,0,1,.81.59,1.81,1.81,0,0,1,.15,1.68A4.24,4.24,0,0,1,258.66,243.58Zm102.28,43.57a5.16,5.16,0,0,1-4.29-.52,3.89,3.89,0,0,1-1.95-2.46,3.58,3.58,0,0,1,2-3.67,6,6,0,0,1,4.24-.23,3.71,3.71,0,0,1,2.66,3.57A3.91,3.91,0,0,1,360.94,287.15Z"
            style="fill:#BEF264"></path>
        <path
            d="M234.77,421.74s7.56-15.86,13.32-19,20.52-7.7,20.52-7.7L296.42,411,306.1,422,289,421.74l-5.25-8.91L268.5,402.75l-15,4.21L246.66,422Z"
            style="fill:#263238"></path>
        <polygon
            points="241.98 409.21 233.14 411.84 222.67 422.02 230.22 421.94 234.77 415.61 240.51 413.49 241.98 409.21"
            style="fill:#263238"></polygon>
        <polygon
            points="337.65 420.33 340.63 410.57 348.08 404.98 368.08 409.83 358.95 413.73 348.08 408.61 343.57 412.65 343.57 419.26 337.65 420.33"
            style="fill:#263238"></polygon>
        <path
            d="M282.07,402.75s5.58,5.4,7.9,6.69c0,0,1.17,3.85,1.82,3.39a3.81,3.81,0,0,0,1-1.68s.29,6.3,1.64,5.94,1.15-5.29,1.15-5.29l3.79,2.52L296.42,411Z"
            style="fill:#BEF264"></path>
        <path
            d="M434.27,380.67c-3.1-2.81-23.6-15.66-17.72-30.37s13.24-18.24,13.24-28.24-2.2-13.83-2.2-13.83h21.32s-21.47,34.71-20,44.13,32.06,21.76,37.65,29.71,5.88,14.7,5.88,14.7l-31.29,0C443.13,391.42,441.42,385.88,434.27,380.67Z"
            style="fill:#263238"></path>
        <path
            d="M447.33,368.47s4.52-1,7.18-8.61,0-8.86,0-8.86h3.55a28.25,28.25,0,0,1,1.12,14.42c-1.65,8.5-2.36,13.58-2.36,13.58Z"
            style="fill:#263238"></path>
        <polygon points="453.96 361.29 454.59 359.65 459.65 360.05 459.61 361.99 453.96 361.29"
            style="opacity:0.30000000000000004"></polygon>
        <path
            d="M429.51,316.25l14.94-.5-3,5.12-11.72-.25C429.73,319.19,429.66,317.73,429.51,316.25Z"
            style="opacity:0.30000000000000004"></path>
        <path
            d="M490.09,291.63a218.61,218.61,0,0,0-18.49-34c-4.81-7.41-10-14.8-17.25-19.91s-16.79-7.65-25.05-4.5c-7.68,2.94-12.89,10.14-16.67,17.46s-6.43,15.85-10.67,22.9c-4,6.6-7.25,8.12-12,13.4s-9.08,11.72-7.16,18.57c34.22,13.3,69.11,13.08,103.06-.91,1.81-.75,3.71-1.62,4.82-3.24C492.57,298.58,491.41,294.77,490.09,291.63Z"
            style="fill:#BEF264"></path>
        <g style="opacity:0.30000000000000004">
            <path
                d="M490,291.63a218.61,218.61,0,0,0-18.49-34c-4.81-7.41-10-14.8-17.25-19.91l0,0c5.63,4.88,10,11.12,14.1,17.41a218.07,218.07,0,0,1,18.48,34c1.32,3.14,2.49,7,.56,9.76-1.11,1.62-3,2.48-4.83,3.23-33,13.61-66.87,14.19-100.17,2,.08.48.18,1,.31,1.45,34.22,13.3,69.11,13.08,103.05-.91,1.82-.75,3.72-1.62,4.83-3.24C492.49,298.58,491.33,294.77,490,291.63Z"></path>
        </g>
        <path
            d="M421,253c3.47,1,4.58,7.73,2.49,15s-6.6,12.46-10.06,11.47-4.59-7.73-2.49-15.06S417.51,252,421,253Z"
            style="fill:#fff;opacity:0.30000000000000004"></path>
        <path
            d="M462.22,269c4.37-1.43,9.83,3.28,12.2,10.52s.75,14.26-3.61,15.69-9.83-3.28-12.2-10.52S457.86,270.42,462.22,269Z"
            style="fill:#fff;opacity:0.30000000000000004"></path>
        <path
            d="M447.42,248.26c1.33-.49,3.41,1.82,4.64,5.16s1.15,6.44-.18,6.93-3.4-1.82-4.64-5.16S446.09,248.75,447.42,248.26Z"
            style="fill:#fff;opacity:0.30000000000000004"></path>
        <path
            d="M426.81,279.06c1.59.62,1.82,3.85.51,7.21s-3.66,5.58-5.25,5-1.82-3.85-.51-7.21S425.22,278.44,426.81,279.06Z"
            style="fill:#fff;opacity:0.30000000000000004"></path>
        <path
            d="M405.36,281.71c1.59.62,2.28,2.66,1.54,4.56s-2.63,2.93-4.22,2.31-2.28-2.66-1.54-4.56S403.77,281.09,405.36,281.71Z"
            style="fill:#fff;opacity:0.30000000000000004"></path>
        <path
            d="M439.2,351.27a81.07,81.07,0,0,1,6.86-12.62,26.07,26.07,0,0,1,6.39-7.38c2.67-1.9,6.23-2.84,9.29-1.67,2.85,1.09,4.78,3.76,6.18,6.47s2.39,5.89,4,8.5c1.47,2.45,2.69,3,4.46,5s3.37,4.34,2.66,6.89a50,50,0,0,1-38.22-.34,3.9,3.9,0,0,1-1.79-1.2C438.28,353.85,438.71,352.43,439.2,351.27Z"
            style="fill:#FDBA74"></path>
        <g style="opacity:0.30000000000000004">
            <path
                d="M442,355.15h0a4.54,4.54,0,0,1-2.75-3.82v-.05c-.49,1.16-.92,2.58-.21,3.62a3.85,3.85,0,0,0,1.79,1.2,50,50,0,0,0,38.22.34,3.45,3.45,0,0,0,.11-.54A49.91,49.91,0,0,1,442,355.15Z"></path>
        </g>
        <ellipse cx="466.23" cy="341.87" rx="2.42" ry="5.11"
            transform="translate(-75.98 141.23) rotate(-15.94)"
            style="fill:#fff;opacity:0.30000000000000004"></ellipse>
        <path
            d="M449.53,342.87c-1.62-.53-3.64,1.22-4.52,3.9s-.28,5.29,1.34,5.82,3.64-1.21,4.52-3.9S451.15,343.4,449.53,342.87Z"
            style="fill:#fff;opacity:0.30000000000000004"></path>
        <path
            d="M462.66,346.61c-.59.23-.67,1.42-.18,2.67s1.35,2.07,1.94,1.84.68-1.43.19-2.67S463.25,346.38,462.66,346.61Z"
            style="fill:#fff;opacity:0.30000000000000004"></path>
        <path
            d="M407.84,397.16a137.82,137.82,0,0,1-5.92-12.87c-1.56-4.46,0-5.19,0-5.19h-2.08s-1.47,2,.87,10.21c2.18,7.65-3.11,7.58-3.11,7.58Z"
            style="fill:#263238"></path>
        <path d="M399.38,381.56l1.86-.21-.05-.63h-1.76S399.38,381.3,399.38,381.56Z"
            style="opacity:0.30000000000000004"></path>
        <path
            d="M412.61,375.66a48.79,48.79,0,0,0-4-7.38,15.4,15.4,0,0,0-3.74-4.32,6,6,0,0,0-5.44-1,7.42,7.42,0,0,0-3.62,3.78c-.82,1.59-1.39,3.44-2.31,5a15.64,15.64,0,0,1-2.61,2.91c-1,1.15-2,2.54-1.56,4a29.22,29.22,0,0,0,22.36-.2,2.2,2.2,0,0,0,1.05-.7A2.26,2.26,0,0,0,412.61,375.66Z"
            style="fill:#FDBA74"></path>
        <g style="opacity:0.30000000000000004">
            <path
                d="M412.59,375.66a2.35,2.35,0,0,1-1.62,2.27,29.22,29.22,0,0,1-21.73.44,1.73,1.73,0,0,0,.07.31,29.22,29.22,0,0,0,22.36-.2,2.22,2.22,0,0,0,1-.7A2.26,2.26,0,0,0,412.59,375.66Z"></path>
        </g>
        <ellipse cx="396.79" cy="370.17" rx="2.99" ry="1.42"
            transform="translate(-68.13 650.01) rotate(-74.06)"
            style="fill:#fff;opacity:0.30000000000000004"></ellipse>
        <path
            d="M406.56,370.75c.95-.31,2.14.71,2.65,2.28s.16,3.1-.78,3.41-2.14-.71-2.65-2.28S405.62,371.06,406.56,370.75Z"
            style="fill:#fff;opacity:0.30000000000000004"></path>
        <path
            d="M398.88,372.94c.34.13.39.83.11,1.56s-.79,1.21-1.14,1.08-.39-.84-.11-1.57S398.53,372.8,398.88,372.94Z"
            style="fill:#fff;opacity:0.30000000000000004"></path>
        <path d="M447.33,368.47l6,3.67L450,367A7.19,7.19,0,0,1,447.33,368.47Z"
            style="opacity:0.30000000000000004"></path>
        <polygon
            points="325.38 422.61 390.64 396.84 416.68 397.16 436.98 382.89 495.97 400.26 545.91 422.61 325.38 422.61"
            style="fill:#263238"></polygon>
        <path
            d="M444.82,385.2a1.73,1.73,0,0,0,0-1.69c-.47-1-2.65.91-2.65.91s.21-3.55-.45-4.49-1.82,3.82-1.82,3.82-1.19-3.16-2.92-3,0,2.17,0,2.17-19.59,13.34-20.3,14.08l-17.3-.59c-.84-.57-3.75.42-3.75.42a4.15,4.15,0,0,0-.56-2.29c-.66-1-1.13,1.79-1.13,1.79s-.09-2.16-1.13-3,0,3.1,0,3.1a3.65,3.65,0,0,0-2.17-1.41c-1.43-.28,1,1.87,0,1.86s-10.28,4.06-10.28,4.06.69,4.9,2.86,7.34.47-4.79,2.44-4.79.1,4.42,2.82,4.89,1.6-6.21,3.3-6.12-.57,11.95,2.44,12.23,1.32-14.77,2.35-13,1,4.61,2.81,4.61-.08-2.16,1.71-4.51,12.41.94,13.45,1.18.47,5.68,2.73,4.93.37-5.08,2.72-4.52,2.92,8,6.32,5.08,6.76-14,7.79-14.2.57,4.61,2.45,4.61.37-5.64,2-5.55.75,7.53,3.48,7.15.19-10.35,4.42-10.35,25.84,3.38,25.84,3.38Z"
            style="fill:#BEF264"></path>
        <path
            d="M422,388.19c-.21-.48-.59-1-1.1-.92s-.63.69-.65,1.17a9.57,9.57,0,0,0,.58,3.75,3.81,3.81,0,0,1-.75-.7.92.92,0,0,0-.93-.3.76.76,0,0,0-.4.83,2.13,2.13,0,0,0,.43.88,24.93,24.93,0,0,0,1.76,2.2l2.57-1.7A21.34,21.34,0,0,0,422,388.19Z"
            style="fill:#FDBA74"></path>
    </g>
    <g id="freepik--alien-plant-1--inject-2">
        <path
            d="M98.15,351.37c1.06-3.47,3.18-7.7,6.79-7.37,2.89.27,4.59,3.58,4.5,6.47s-1.38,5.6-2,8.44c-1.28,6.23.89,12.66,3.71,18.38s6.31,11.17,7.95,17.32c2.3,8.59.56,20.24-4.55,27.52h-7.85c5-7.23,2.87-18.27-1.15-26.07S96,380.91,94.89,372.21C94,365.18,96.07,358.15,98.15,351.37Z"
            style="fill:#BEF264"></path>
        <path
            d="M84.35,371.09a4.2,4.2,0,0,1,2.13-2.66c1.82-.66,3.55,1.18,4.41,2.92,2.72,5.51,2.75,12,4.75,17.77,1.88,5.51,5.47,10.26,7.93,15.53s4,12.44,1.12,17.48H98.77c1.6-4.24,0-7-2.46-10.75s-5.87-6.92-8.47-10.65A32.2,32.2,0,0,1,84.35,371.09Z"
            style="fill:#BEF264"></path>
        <path
            d="M113,361.91c.34,5.48,1.73,10.08,3.31,15.34,2.08,6.88,5.66,12.73,6.29,19.9.76,8.79-1.59,16.85-5,25h5.29c5.15-10.3,10.13-20.66,8.68-32.08-.9-7.05-4.88-14.12-5.36-21.2a45.31,45.31,0,0,0-1.88-11.66c-.94-2.68-3.53-5.24-6.29-4.56C118,352.63,112.46,353.4,113,361.91Z"
            style="fill:#BEF264"></path>
        <path
            d="M135.92,397.88c.33-4.89-.67-9.86.28-14.67.39-2,1.48-4.26,3.51-4.56a3.75,3.75,0,0,1,3,1.07,8.41,8.41,0,0,1,1.82,2.75c3,6.66,2.63,14.58-.11,21.37a48.66,48.66,0,0,1-13.11,18.29h-6.45C129.66,414.6,135.31,406.79,135.92,397.88Z"
            style="fill:#BEF264"></path>
        <path
            d="M119.92,406.67a11.67,11.67,0,0,0-4.56-8.6,11.91,11.91,0,0,0-9.78-2l-2.08-3.82s13.94-4.38,16.48,7.21C120,399.45,120.38,405.3,119.92,406.67Z"
            style="opacity:0.30000000000000004"></path>
        <path
            d="M119.13,394.61s-1.76-4.71-6.57-5.23-9.74,1.66-9.87,1.44l-.87-1.52s12.43-6,16.48,2.65Z"
            style="opacity:0.30000000000000004"></path>
        <path
            d="M111.52,378s-8.45-2.09-11.71-4.68c-4.52-3.58-5-7.25-5-7.25l.52-3.83s2.88,6.57,8.2,8.95a14,14,0,0,0,5.61,1.39Z"
            style="opacity:0.30000000000000004"></path>
        <g style="opacity:0.30000000000000004">
            <path
                d="M130.12,405.08c-.3,1-.63,2.06-1,3.09a27.53,27.53,0,0,0-3-6,10.07,10.07,0,0,0-3.46-3.58c0-.48,0-.94-.06-1.42s-.14-1.07-.22-1.61C124,396.67,128.85,400.43,130.12,405.08Z"></path>
            <path
                d="M122.7,401.26a8.08,8.08,0,0,1,2.55,3.39c1.14,2.27,2.16,4.82,2.78,6.42-.57,1.39-1.17,2.77-1.8,4.15a46.39,46.39,0,0,0-3.25-6.67l-.84-1.24A41.87,41.87,0,0,0,122.7,401.26Z"></path>
            <path
                d="M121.34,380.71c2.39-.08,5.09-2.12,7.6-.57a66.7,66.7,0,0,1,2.27,8c-.72-1.77-2.1-4.27-4.14-4.69-3.09-.63-5.76,2.38-8.17.91-.92-2.3-1.86-4.63-2.6-7.08-.32-1.09-.64-2.14-.94-3.18C117.23,377.15,119.77,380.76,121.34,380.71Z"></path>
            <path
                d="M117.47,362.35c4.24,4.15,7.17,2,8.21,1,.25,1.86.4,3.73.52,5.54,0,.61.14,1.22.23,1.84-7.19-2.4-11.1-3.83-13.47-10.2a9,9,0,0,1,2-6C115,357.19,115.52,360.44,117.47,362.35Z"></path>
        </g>
        <g style="opacity:0.30000000000000004">
            <path
                d="M95.91,359.34c1.11,1.87,5.16,8.34,7.71,9a8.75,8.75,0,0,0,4.2.13q.29,1.17.66,2.34v0a7.93,7.93,0,0,1-6.17-2.16,49.76,49.76,0,0,1-6.71-7.93C95.71,360.24,95.8,359.79,95.91,359.34Z"></path>
            <path
                d="M104.94,344c2.89.27,4.59,3.58,4.5,6.47s-1.38,5.6-2,8.44c0,.25-.06.51-.1.76-1,.68-2.59.85-5.33-1.58a27,27,0,0,1-4.37-5.15l.48-1.57C99.21,347.9,101.33,343.67,104.94,344Z"></path>
        </g>
        <g style="opacity:0.30000000000000004">
            <path
                d="M94.4,398.54a9.84,9.84,0,0,1,4.75-2c.71,1.27,1.45,2.54,2.17,3.81-1.56.37-4.12,1.26-5.34,3.29a24,24,0,0,0-1.85,4.8c-1-1.24-2-2.45-3.09-3.67C91.85,402.52,93,399.84,94.4,398.54Z"></path>
            <path
                d="M92.2,398.16c-1.18,2-1.45,4.07-2.12,5.47-.53-.64-1-1.31-1.53-2,.63-1.94,1.48-4.55,3.23-6.14s4.37-2,5.68-2.13c.23.45.46.9.7,1.35C96.77,395,93.61,395.82,92.2,398.16Z"></path>
            <path
                d="M82.93,382.64a28.34,28.34,0,0,1,5-2.29,9.37,9.37,0,0,1,5.47-.17l.22.63c.39,2,.76,4,1.27,6a6.77,6.77,0,0,0-6,.18,12,12,0,0,0-4.94,5.51l-.16.29A32.51,32.51,0,0,1,82.25,383Z"></path>
        </g>
        <g style="opacity:0.30000000000000004">
            <path
                d="M135.87,391.48c-.05-1.18-.09-2.36-.08-3.53,1.75,1.63,4.66,3.84,7.3,3.48a5.84,5.84,0,0,0,3.41-1.49,27.17,27.17,0,0,1,0,5.41,7.06,7.06,0,0,1-4.21,1.19C140,396.54,137.46,393.7,135.87,391.48Z"></path>
            <path
                d="M133.92,408.79a6.44,6.44,0,0,1-.62-1.05c.32-.73.61-1.45.89-2.19h0s1.6,3.48,5.1,4.17a8.68,8.68,0,0,0,2.13.18c-.47.79-.95,1.57-1.46,2.34C138.61,412.37,136.32,412,133.92,408.79Z"></path>
            <path
                d="M134.07,417.17a6.47,6.47,0,0,1-3.6-4c.45-.76.87-1.53,1.29-2.31a9.52,9.52,0,0,0,2.5,3.8,4.08,4.08,0,0,0,3.32.85c-.54.69-1.1,1.36-1.67,2A4.48,4.48,0,0,1,134.07,417.17Z"></path>
            <path
                d="M132.28,418.93a5.12,5.12,0,0,1-3-3.75L130,414a8.34,8.34,0,0,0,2.82,3.64,9.17,9.17,0,0,0,2.26.84c-.35.39-.72.76-1.08,1.13A10.83,10.83,0,0,1,132.28,418.93Z"></path>
            <path
                d="M140.85,389.79a2.71,2.71,0,0,1-1.53-1.18,1.48,1.48,0,0,1,.27-1.81,7.3,7.3,0,0,1,1.41-.57,2.33,2.33,0,0,0,.55-3.37,4.81,4.81,0,0,0-3.4-1.66c-.4-.05-.83-.09-1.24-.16a3.9,3.9,0,0,1,2.8-2.39,3.75,3.75,0,0,1,3,1.07,8.41,8.41,0,0,1,1.82,2.75,23.21,23.21,0,0,1,1.7,5.56A4.88,4.88,0,0,1,140.85,389.79Z"></path>
        </g>
    </g>
    <g id="freepik--alien-plant-2--inject-2">
        <path
            d="M306,430.06a7,7,0,0,0-6.78-1.21,12.39,12.39,0,0,0-5.68,4.29c-3.73,4.71-5.2,10.75-7.33,16.36s-5.47,11.36-11.07,13.53q.74-30.63,1.48-61.28c.07-2.84,0-6.06-2.13-8-3.06-2.76-8.14-.68-10.73,2.53-4.6,5.68-4.93,13.62-4.62,20.92a186.15,186.15,0,0,0,5.23,36.61c.33,1.34.62,2.92-.28,3.95a2.92,2.92,0,0,1-3.76.13,8.1,8.1,0,0,1-2.37-3.31,121.7,121.7,0,0,1-11.73-55.17c.12-4.84.11-10.61-3.9-13.34-3.27-2.22-8-1.14-10.84,1.59s-4.19,6.69-4.91,10.57c-2.23,12.13.59,24.76,5.72,36s12.46,21.26,19.75,31.21c-6.11-2-11.25-6.43-15.06-11.63s-6.37-11.19-8.5-17.28a30.06,30.06,0,0,0-3.18-7.24,8.89,8.89,0,0,0-6.46-4.13c-3.17-.19-6.12,2.08-7.46,5a15.16,15.16,0,0,0-.67,9.33c1.86,9.35,8.58,17.15,16.51,22.42s17.09,8.36,26.12,11.39l22.5.73c7.32-4.62,13-6.42,19.12-12.54s11.08-13.68,12.8-22.17C308.45,436.08,308.45,432.28,306,430.06Z"
            style="fill:#455a64"></path>
        <path
            d="M244.14,347.37a31.32,31.32,0,0,0,9.93-8.53,12.14,12.14,0,0,0-12,8.89,10,10,0,0,0-12.36-2.15c-.28.17-.59.41-.6.74s.51.7.94.83a91.42,91.42,0,0,0,11,2.61,14.44,14.44,0,0,0-6.22,11,28.18,28.18,0,0,0,8.86-11.67,9.44,9.44,0,0,0,2.27,5.31,28.07,28.07,0,0,0,4.31,4,1.85,1.85,0,0,0,1.54.59c.87-.24.9-1.48.6-2.33-1.3-3.7-4.88-6-8.22-8.09A17.6,17.6,0,0,0,257.5,350,13.74,13.74,0,0,0,244.14,347.37Z"
            style="fill:#455a64"></path>
        <path
            d="M242.07,347.25a58.88,58.88,0,0,1-5.26-12.43c-.59-2-1-4.24-.06-6.07a44.48,44.48,0,0,1,3.61,11.15,22.49,22.49,0,0,1,3.44-12.82c.17-.27.43-.58.74-.5s.41.58.38.95q-.85,9.87-1.72,19.75"
            style="fill:#BEF264"></path>
        <circle cx="240.12" cy="328.33" r="19.23"
            transform="translate(-125.83 150.74) rotate(-27.93)"
            style="fill:#BEF264;opacity:0.30000000000000004"></circle>
        <path
            d="M246.77,344.31a5.1,5.1,0,0,1-1.17.57,14.68,14.68,0,0,1-3.43.91,16.47,16.47,0,0,1-18.31-11.52,15.26,15.26,0,0,1-.66-3.48,5.66,5.66,0,0,1,0-1.3,27.16,27.16,0,0,0,1,4.67,16.61,16.61,0,0,0,17.92,11.27A26,26,0,0,0,246.77,344.31Z"
            style="fill:#263238"></path>
        <path
            d="M256.66,324c-.09,0-.44-1.12-1.37-2.8a18.1,18.1,0,0,0-11.48-8.88c-1.86-.48-3.07-.53-3.06-.62a2.19,2.19,0,0,1,.85,0,14.08,14.08,0,0,1,2.29.3,17,17,0,0,1,11.73,9.07,13.86,13.86,0,0,1,.86,2.14A2.46,2.46,0,0,1,256.66,324Z"
            style="fill:#263238"></path>
        <path
            d="M257.17,326.47c.14,0,.28.28.32.65s-.06.68-.2.69-.29-.27-.32-.65S257,326.48,257.17,326.47Z"
            style="fill:#263238"></path>
        <g style="opacity:0.30000000000000004">
            <path
                d="M237.59,311.59a15.1,15.1,0,0,0-9.05,4.35c-2.4,2.42-4.4,5.59-4.73,9a4.62,4.62,0,0,0,1.83,4.16,3.25,3.25,0,0,0,3.81-.78,10.11,10.11,0,0,0,2-3.67,8.59,8.59,0,0,1,2.1-3.57c2-1.75,5.47-1.5,7-3.68a3.56,3.56,0,0,0,.37-3.47A3.68,3.68,0,0,0,237.59,311.59Z"
                style="fill:#fff"></path>
        </g>
        <path
            d="M244.54,348.82a3.36,3.36,0,0,1,.9.44,25.56,25.56,0,0,1,2.28,1.44,13.25,13.25,0,0,1,2.94,2.79,9.07,9.07,0,0,1,1.18,2.1,6.54,6.54,0,0,1,.36,1.24,1.93,1.93,0,0,1-.12,1.44,1.31,1.31,0,0,1-1.42.49,3,3,0,0,1-1.18-.67c-.63-.54-1.21-1.08-1.75-1.62a26.11,26.11,0,0,1-2.61-3.06,23.13,23.13,0,0,1-1.46-2.28,3.48,3.48,0,0,1-.41-.9c.07-.05.77,1.18,2.17,3a31,31,0,0,0,2.65,2.94c.53.52,1.12,1.05,1.74,1.56a2.4,2.4,0,0,0,1,.57.81.81,0,0,0,.87-.27,1.44,1.44,0,0,0,.05-1.06,6.31,6.31,0,0,0-.32-1.15,9,9,0,0,0-1.1-2A13.66,13.66,0,0,0,247.5,351C245.71,349.63,244.49,348.9,244.54,348.82Z"
            style="fill:#263238"></path>
        <path
            d="M251.38,349.13c0,.15-1.82-.43-4.07-.8s-4.1-.42-4.11-.57a9.93,9.93,0,0,1,4.2.06A10.07,10.07,0,0,1,251.38,349.13Z"
            style="fill:#263238"></path>
        <path
            d="M237.92,354.78a28.05,28.05,0,0,1,5.41-7.31,25.63,25.63,0,0,1-2.58,3.74A26.57,26.57,0,0,1,237.92,354.78Z"
            style="fill:#263238"></path>
        <path
            d="M247.75,353.54a9.54,9.54,0,0,1-2.6-2.52,9.73,9.73,0,0,1-1.94-3.06,18.31,18.31,0,0,1,2.34,2.73A19.35,19.35,0,0,1,247.75,353.54Z"
            style="fill:#263238"></path>
        <path
            d="M243.39,348.92a563.44,563.44,0,0,0,12.38,89.2q2.78,12.48,6.11,24.84a1.25,1.25,0,0,0,2.41-.66A559.18,559.18,0,0,1,247.9,374q-1.29-12.49-2-25c-.09-1.6-2.59-1.61-2.5,0Z"
            style="fill:#455a64"></path>
        <path
            d="M275.77,464a407.69,407.69,0,0,0,12.61-60.49q1.14-8.73,1.89-17.51c.14-1.6-2.36-1.59-2.5,0a403.84,403.84,0,0,1-9.93,60.55q-2.05,8.44-4.48,16.78a1.25,1.25,0,0,0,2.41.67Z"
            style="fill:#455a64"></path>
        <path
            d="M290.89,388.58a28.44,28.44,0,0,0,10.76-5.11A11.05,11.05,0,0,0,289,388.41a9.05,9.05,0,0,0-10.33-4.84c-.29.08-.61.21-.7.5s.27.73.62.95a82.44,82.44,0,0,0,9,4.91,13.13,13.13,0,0,0-8.09,8.19A25.57,25.57,0,0,0,290,390a8.51,8.51,0,0,0,.72,5.2,25.55,25.55,0,0,0,2.83,4.52c.31.42.69.89,1.22.89.82,0,1.14-1.09,1.08-1.91-.26-3.55-2.84-6.45-5.28-9.05A16,16,0,0,0,302,394.11,12.5,12.5,0,0,0,290.89,388.58Z"
            style="fill:#455a64"></path>
        <path
            d="M289.1,388a53.78,53.78,0,0,1-1.64-12.17c0-1.89.1-4,1.4-5.34a40.37,40.37,0,0,1,.5,10.65,20.53,20.53,0,0,1,6.08-10.43c.21-.2.52-.41.77-.26s.22.6.11.92q-3.12,8.46-6.23,16.92"
            style="fill:#BEF264"></path>
        <circle cx="291.92" cy="370.91" r="17.49"
            transform="translate(-166.2 257.26) rotate(-37.86)"
            style="fill:#BEF264;opacity:0.30000000000000004"></circle>
        <path
            d="M293.93,386.53a4.06,4.06,0,0,1-1.16.23,13.79,13.79,0,0,1-3.23,0,15,15,0,0,1-13.33-14.5,13.68,13.68,0,0,1,.26-3.22,4.35,4.35,0,0,1,.33-1.14,25.62,25.62,0,0,0-.22,4.34,15.08,15.08,0,0,0,13,14.15A26.4,26.4,0,0,0,293.93,386.53Z"
            style="fill:#263238"></path>
        <path
            d="M307.45,371.1c-.09,0-.13-1.09-.54-2.79a16.56,16.56,0,0,0-8-10.53c-1.52-.86-2.56-1.2-2.53-1.29a2.15,2.15,0,0,1,.76.17,12.18,12.18,0,0,1,1.94.8,15.45,15.45,0,0,1,8.14,10.77,12.42,12.42,0,0,1,.23,2.09C307.51,370.82,307.49,371.1,307.45,371.1Z"
            style="fill:#263238"></path>
        <path
            d="M307.32,373.35c.14,0,.21.32.15.65s-.22.59-.36.56-.21-.31-.16-.65S307.18,373.33,307.32,373.35Z"
            style="fill:#263238"></path>
        <g style="opacity:0.30000000000000004">
            <path
                d="M293.69,355.62a13.79,13.79,0,0,0-9,1.65,14.12,14.12,0,0,0-6.3,6.77,4.17,4.17,0,0,0,.62,4.08,2.93,2.93,0,0,0,3.52.23,9.27,9.27,0,0,0,2.61-2.75,7.64,7.64,0,0,1,2.7-2.63c2.2-1.06,5.16,0,7.06-1.55a3.26,3.26,0,0,0,1.16-2.95A3.35,3.35,0,0,0,293.69,355.62Z"
                style="fill:#fff"></path>
        </g>
        <path
            d="M290.9,390a3.27,3.27,0,0,1,.69.59c.41.41,1,1,1.67,1.82a12.14,12.14,0,0,1,1.91,3.14,8,8,0,0,1,.54,2.14,6.61,6.61,0,0,1,0,1.18,1.76,1.76,0,0,1-.46,1.25,1.23,1.23,0,0,1-1.39.09,2.73,2.73,0,0,1-.88-.88c-.42-.62-.81-1.24-1.15-1.84a24.22,24.22,0,0,1-1.55-3.31,18.46,18.46,0,0,1-.73-2.36,2.29,2.29,0,0,1-.14-.89c.08,0,.41,1.22,1.21,3.11a28.69,28.69,0,0,0,1.63,3.21c.34.59.73,1.18,1.15,1.79a2.19,2.19,0,0,0,.71.71.7.7,0,0,0,.8,0,1.38,1.38,0,0,0,.29-.9,6.59,6.59,0,0,0,0-1.09,7.85,7.85,0,0,0-.48-2,12.94,12.94,0,0,0-1.75-3.09C291.72,391,290.83,390,290.9,390Z"
            style="fill:#263238"></path>
        <path
            d="M296.82,391.86c-.08.13-1.5-.79-3.38-1.65A36.71,36.71,0,0,1,290,388.7a8.65,8.65,0,0,1,3.67,1A8.47,8.47,0,0,1,296.82,391.86Z"
            style="fill:#263238"></path>
        <path
            d="M283.67,393.6a14.05,14.05,0,0,1,3-2.84,14.37,14.37,0,0,1,3.47-2.28,20.46,20.46,0,0,1-3.15,2.69A21.46,21.46,0,0,1,283.67,393.6Z"
            style="fill:#263238"></path>
        <path
            d="M292.58,394.86a8.26,8.26,0,0,1-1.7-2.82,8.38,8.38,0,0,1-.95-3.16,14.22,14.22,0,0,1,1.43,2.95A14.73,14.73,0,0,1,292.58,394.86Z"
            style="fill:#263238"></path>
        <path
            d="M291.94,305.61c.1,0,.1,1.38.6,3.51a26.48,26.48,0,0,0,3.38,7.82,60.5,60.5,0,0,0,5.17,6.87,25.3,25.3,0,0,1,2.25,2.78s-.28-.2-.72-.64-1.06-1.08-1.81-1.9a48,48,0,0,1-5.33-6.83,24.32,24.32,0,0,1-3.3-8,14.58,14.58,0,0,1-.29-2.62A3.4,3.4,0,0,1,291.94,305.61Z"
            style="fill:#263238"></path>
    </g>
    <g id="freepik--alien-plant-5--inject-2">
        <path
            d="M525,474s.51-7,14.28-6.29,10.87,5.74,17.4,2.69,6.16-4.5,6.16-8.49-7.25-23.56-5.8-34.8,8.34-37.69,32.26-37.69A13.32,13.32,0,0,1,602,396.31c4.72,8,13.48,16.62,25.81,7.36,5.19-3.89,6.81-27.5,3.45-45.82-2.71-14.77-7.15-29.32-20.92-31.13s-23.56,27.19-41,23.92S551.61,309,551.61,309h4.71s2.18,21.39,10.88,22.11,24.64-24.64,38.78-23.92,23.56,11.24,31.17,28.27,10.18,46.21,9.06,60.17c-1.44,18-6.52,38.42-28.27,35.52s-20.66-19.21-27.18-8.34-1.09,34.8,18.84,42.77,29-7.39,39.15,8.92Z"
            style="fill:#455a64"></path>
        <path
            d="M573.84,306.16a50.34,50.34,0,0,0-10-9.29c-3.45-2.42-7.45-4.46-11.66-4.27s-7.82,2.45-11,5a50,50,0,0,0-9,9.57c-1.8,2.52-3.41,5.81-2,8.59,1.15,2.34,4.09,3.33,6.69,3.05s5-1.54,7.34-2.65,3.94-.95,7.52-1.79l-3.92.59c8-1.34,19.52-.32,24.45-2.92a4.18,4.18,0,0,0,2.68-3.13A3.5,3.5,0,0,0,573.84,306.16Z"
            style="fill:#455a64"></path>
        <path d="M554,328.89s-4.18-11.71-10.42-12.4l3.17-5.82,16.3-.77,6,.84s-12.72,5.82-6.4,17.66Z"
            style="fill:#455a64"></path>
        <path
            d="M595.87,289.41a50.38,50.38,0,0,1,10-9.29c3.45-2.42,7.45-4.47,11.66-4.28s7.82,2.46,11,5.06a49.69,49.69,0,0,1,9,9.57c1.8,2.52,3.41,5.8,2,8.58-1.15,2.35-4.09,3.33-6.69,3.06s-5-1.54-7.34-2.65-3.95-.95-7.52-1.8l3.92.6c-7.95-1.35-19.52-.32-24.45-2.93a4.15,4.15,0,0,1-2.68-3.12A3.51,3.51,0,0,1,595.87,289.41Z"
            style="fill:#455a64"></path>
        <path
            d="M622.49,316.66s-5.09-17.84,5.62-17.39l-4.56-5.36-13.1-.76-4.79.83s12.22,6.4.32,13.17Z"
            style="fill:#455a64"></path>
        <path
            d="M567.6,313.33s-.18.11-.54.23a9.06,9.06,0,0,1-1.6.42,4.57,4.57,0,0,1-2.58-.22,3.45,3.45,0,0,1-1.29-1A2.49,2.49,0,0,1,561,311l.47,0a6.73,6.73,0,0,1-.69,3.08,3.11,3.11,0,0,1-1.32,1.19,5.85,5.85,0,0,1-1.73.47c-4,.32-7.59.5-10.21.64l-3.09.13a5.39,5.39,0,0,1-1.14,0,4.5,4.5,0,0,1,1.13-.18l3.08-.3,10.16-.79a3.41,3.41,0,0,0,2.69-1.4A6.49,6.49,0,0,0,561,311l.47,0a2.48,2.48,0,0,0,1.54,2.34,4.46,4.46,0,0,0,2.38.3C566.79,313.53,567.58,313.26,567.6,313.33Z"
            style="fill:#263238"></path>
        <path
            d="M563.51,282.65a39.4,39.4,0,0,0-7.85-7.3c-2.72-1.91-5.86-3.51-9.17-3.36s-6.14,1.93-8.64,4a39.33,39.33,0,0,0-7.06,7.52c-1.41,2-2.67,4.56-1.6,6.74.91,1.85,3.22,2.62,5.26,2.4a18.27,18.27,0,0,0,5.77-2.08c1.86-.87,3.1-.74,5.91-1.41l-3.08.47c6.24-1.06,15.33-.25,19.21-2.3a3.27,3.27,0,0,0,2.1-2.45A2.73,2.73,0,0,0,563.51,282.65Z"
            style="fill:#455a64"></path>
        <path d="M548,300.51s-3.28-9.2-8.19-9.75l2.5-4.57,12.8-.6,4.68.65s-10,4.58-5,13.88Z"
            style="fill:#455a64"></path>
        <path
            d="M558.6,288.28s-.14.1-.42.2a7.73,7.73,0,0,1-1.25.34,3.57,3.57,0,0,1-2-.17,2.82,2.82,0,0,1-1-.78,2,2,0,0,1-.45-1.41.24.24,0,0,1,.47,0,5.22,5.22,0,0,1-.55,2.44,3.07,3.07,0,0,1-2.43,1.33c-3.16.26-6,.39-8,.49a20.89,20.89,0,0,1-3.33.05,18.94,18.94,0,0,1,3.3-.41c2-.2,4.89-.4,8-.64a2.6,2.6,0,0,0,2.07-1.08,4.84,4.84,0,0,0,.51-2.21l.47,0A1.9,1.9,0,0,0,555,288.3a3.45,3.45,0,0,0,1.85.25C558,288.41,558.58,288.22,558.6,288.28Z"
            style="fill:#263238"></path>
        <path
            d="M626,299a1.08,1.08,0,0,1-.31.15,4.85,4.85,0,0,1-.94.25,6.25,6.25,0,0,1-3.56-.46,7.49,7.49,0,0,1-2.06-1.41,2.41,2.41,0,0,0-1.1-.56,2.37,2.37,0,0,0-1.27.25c-.44.2-.88.46-1.39.65a6.58,6.58,0,0,1-1.6.4,7,7,0,0,1-3.41-.45c-1.14-.4-1.95-1.36-2.86-1.63a2.42,2.42,0,0,0-1.42.12,11.81,11.81,0,0,1-1.51.36,11.54,11.54,0,0,1-5.31-.35,10.76,10.76,0,0,1-3.21-1.61,5.72,5.72,0,0,1-.74-.62c-.16-.16-.24-.24-.23-.26a14.33,14.33,0,0,0,4.28,2.13,11.44,11.44,0,0,0,5.12.24,10,10,0,0,0,1.45-.37,2.93,2.93,0,0,1,1.7-.13,4.82,4.82,0,0,1,1.51.84,6.83,6.83,0,0,0,1.42.8,6.49,6.49,0,0,0,4.63.07c.47-.17.9-.43,1.38-.63a2.75,2.75,0,0,1,1.53-.26,2.7,2.7,0,0,1,1.31.68,7.46,7.46,0,0,0,1.93,1.41,6.53,6.53,0,0,0,3.38.59C625.49,299.09,625.93,298.92,626,299Z"
            style="fill:#263238"></path>
        <path
            d="M582.76,367.51a31,31,0,0,1,6.16-5.73c2.13-1.49,4.6-2.75,7.2-2.63s4.82,1.51,6.78,3.11a31.36,31.36,0,0,1,5.54,5.91c1.11,1.55,2.1,3.58,1.26,5.29a4.08,4.08,0,0,1-4.13,1.88,14.66,14.66,0,0,1-4.53-1.63c-1.46-.68-2.43-.59-4.64-1.11l2.42.37c-4.9-.83-12-.2-15.08-1.8a2.58,2.58,0,0,1-1.65-1.93A2.15,2.15,0,0,1,582.76,367.51Z"
            style="fill:#455a64"></path>
        <path d="M600,393.62s-12.13-8.94,1.32-20.53l-1.49-2.8-8.07-.47-3,.51s8.72,12.33-6.55,20.9Z"
            style="fill:#455a64"></path>
        <path
            d="M601.31,373.41a1.66,1.66,0,0,1-.77.28,3.78,3.78,0,0,1-2.23-.25c-1-.27-1.59-1.7-2.67-1a5.52,5.52,0,0,1-1.86.66,4.32,4.32,0,0,1-2.15-.29c-.73-.25-1.25-.86-1.76-1s-1.14.23-1.76.3a7.1,7.1,0,0,1-3.32-.25,6.43,6.43,0,0,1-2-1c-.42-.33-.6-.56-.58-.58a11.09,11.09,0,0,0,2.66,1.25,7,7,0,0,0,3.12.12,6,6,0,0,0,.88-.23,1.91,1.91,0,0,1,1.1-.08,3.11,3.11,0,0,1,1,.53,3.57,3.57,0,0,0,.85.48,3.91,3.91,0,0,0,1.9.26,5,5,0,0,0,1.73-.59,1.79,1.79,0,0,1,1-.17,1.66,1.66,0,0,1,.84.45,4.78,4.78,0,0,0,1.17.86,4,4,0,0,0,2,.39C601,373.46,601.29,373.37,601.31,373.41Z"
            style="fill:#263238"></path>
        <path
            d="M559.84,384.3a23.55,23.55,0,0,1,1-6.24,7.44,7.44,0,0,1,8.53-6.13,23.07,23.07,0,0,1,6,1c1.37.41,2.89,1.16,3.17,2.56a3,3,0,0,1-1.59,3,11.22,11.22,0,0,1-3.43,1.11,16.41,16.41,0,0,0-3.27,1.47l1.61-.9c-3.3,1.76-7.24,5.41-9.79,5.86a2,2,0,0,1-1.87-.39A1.63,1.63,0,0,1,559.84,384.3Z"
            style="fill:#455a64"></path>
        <path d="M582.06,391.9s-11.31.25-8.64-12.81l-2.17-1-5,3.43-1.52,1.66s10.83,3.32,5.7,15.43Z"
            style="fill:#455a64"></path>
        <path
            d="M573.56,379.28s0,.24-.3.55a2.89,2.89,0,0,1-1.45.89,3.56,3.56,0,0,1-1.18.09.78.78,0,0,0-.84.5,4,4,0,0,1-.82,1.27,3.2,3.2,0,0,1-1.43.83c-.56.19-1.16.07-1.5.21s-.54.63-.89,1A5.37,5.37,0,0,1,563,386a3.47,3.47,0,0,1-2.27.19,11.11,11.11,0,0,0,2.14-.53,5.42,5.42,0,0,0,1.88-1.36,4.67,4.67,0,0,0,.42-.53,1.41,1.41,0,0,1,.64-.58c.61-.22,1.09-.07,1.55-.24a2.86,2.86,0,0,0,1.22-.7,3.78,3.78,0,0,0,.75-1.13,1.49,1.49,0,0,1,.54-.58,1.41,1.41,0,0,1,.73-.12,3.48,3.48,0,0,0,1.08,0A3.72,3.72,0,0,0,573.56,379.28Z"
            style="fill:#263238"></path>
        <g style="opacity:0.30000000000000004">
            <path
                d="M561.34,312.17a2.79,2.79,0,0,1-1.53,2.46,8,8,0,0,1-2.94.8,87.73,87.73,0,0,1-11.43,1.1l-.6-.09a14.74,14.74,0,0,0,19-2.27A4,4,0,0,1,561.34,312.17Z"></path>
        </g>
        <g style="opacity:0.30000000000000004">
            <path
                d="M545,295c2.41-1.87,5.76-3.06,8.72-2.36A21.07,21.07,0,0,1,556,288.8a3,3,0,0,1-2.31-1.56,2.21,2.21,0,0,1-1,2.48,7.33,7.33,0,0,1-2.94.65c-3,.23-6.21.33-9.24.56,2,.31,4,2.94,4.56,4"></path>
        </g>
        <g style="opacity:0.30000000000000004">
            <path
                d="M620.3,298a5.37,5.37,0,0,0-1.92-1.24,3,3,0,0,0-1.82.28c-.57.26-1.1.6-1.68.82a4.81,4.81,0,0,1-3.86-.19l-1-.19a7,7,0,0,0,1.68,1.76,3.44,3.44,0,0,0,2.31.66c1.11-.13,2.12-.93,3.22-.79a6.12,6.12,0,0,1,2,.91,5.24,5.24,0,0,0,5.59-.59A6.85,6.85,0,0,1,620.3,298Z"></path>
        </g>
        <g style="opacity:00000000000000004">
            <path
                d="M610.27,285.24c-.51-1.26-2.69-2.05-4-1.79l-.63.15a3.34,3.34,0,0,0-2.34,3.07,3.53,3.53,0,0,0,2.2,2.87,3.8,3.8,0,0,0,3.85-.58A3.38,3.38,0,0,0,610.27,285.24Z"
                style="fill:#BEF264"></path>
        </g>
        <g style="opacity:00000000000000004">
            <path
                d="M562,299.32c-.51-1.26-2.69-2.05-4-1.79l-.63.15a3.33,3.33,0,0,0-2.35,3.07,3.53,3.53,0,0,0,2.2,2.87,3.8,3.8,0,0,0,3.85-.58A3.38,3.38,0,0,0,562,299.32Z"
                style="fill:#BEF264"></path>
        </g>
        <g style="opacity:00000000000000004">
            <path
                d="M547.69,277.33c-.51-1.27-2.69-2.06-4-1.79l-.63.14a3.35,3.35,0,0,0-2.34,3.08,3.49,3.49,0,0,0,2.2,2.86,3.81,3.81,0,0,0,3.85-.57A3.4,3.4,0,0,0,547.69,277.33Z"
                style="fill:#BEF264"></path>
        </g>
        <g style="opacity:00000000000000004">
            <path
                d="M623.61,280a3,3,0,0,0-3-1.34l-.47.11a2.51,2.51,0,0,0-1.76,2.3,2.63,2.63,0,0,0,1.65,2.15,2.85,2.85,0,0,0,2.89-.43A2.56,2.56,0,0,0,623.61,280Z"
                style="fill:#BEF264"></path>
        </g>
        <g style="opacity:00000000000000004">
            <path
                d="M618.92,289.72a3,3,0,0,0-3-1.34l-.47.11a2.5,2.5,0,0,0-1.76,2.3,2.63,2.63,0,0,0,1.65,2.15,2.87,2.87,0,0,0,2.89-.43A2.56,2.56,0,0,0,618.92,289.72Z"
                style="fill:#BEF264"></path>
        </g>
        <g style="opacity:00000000000000004">
            <path
                d="M597.45,363.83a3,3,0,0,0-3-1.35l-.48.11a2.5,2.5,0,0,0-1.75,2.31,2.63,2.63,0,0,0,1.65,2.14,2.83,2.83,0,0,0,2.88-.43A2.53,2.53,0,0,0,597.45,363.83Z"
                style="fill:#BEF264"></path>
        </g>
        <g style="opacity:00000000000000004">
            <path
                d="M568.8,376a3,3,0,0,0-3-1.34l-.47.11a2.52,2.52,0,0,0-1.76,2.3,2.63,2.63,0,0,0,1.65,2.15,2.85,2.85,0,0,0,2.89-.43A2.56,2.56,0,0,0,568.8,376Z"
                style="fill:#BEF264"></path>
        </g>
        <g style="opacity:00000000000000004">
            <path
                d="M604.11,367.17a1.93,1.93,0,0,0-1.91-.85l-.3.07a1.59,1.59,0,0,0-1.11,1.45,1.68,1.68,0,0,0,1.05,1.36,1.79,1.79,0,0,0,1.82-.27A1.6,1.6,0,0,0,604.11,367.17Z"
                style="fill:#BEF264"></path>
        </g>
        <g style="opacity:00000000000000004">
            <path
                d="M588.73,368.28a1.9,1.9,0,0,0-1.9-.85l-.3.07a1.57,1.57,0,0,0-1.11,1.45,1.65,1.65,0,0,0,1,1.36,1.79,1.79,0,0,0,1.82-.28A1.59,1.59,0,0,0,588.73,368.28Z"
                style="fill:#BEF264"></path>
        </g>
        <g style="opacity:00000000000000004">
            <path
                d="M574.47,375.06a1.91,1.91,0,0,0-1.91-.85l-.3.07a1.58,1.58,0,0,0-1.11,1.45,1.69,1.69,0,0,0,1,1.36,1.83,1.83,0,0,0,1.83-.27A1.61,1.61,0,0,0,574.47,375.06Z"
                style="fill:#BEF264"></path>
        </g>
        <g style="opacity:00000000000000004">
            <path
                d="M633.12,289.12c-.6-1.5-3.19-2.44-4.78-2.12l-.75.17a4,4,0,0,0-2.78,3.65,4.19,4.19,0,0,0,2.61,3.4,4.53,4.53,0,0,0,4.57-.69A4,4,0,0,0,633.12,289.12Z"
                style="fill:#BEF264"></path>
        </g>
        <g style="opacity:00000000000000004">
            <path
                d="M548.09,305.51c-.61-1.5-3.19-2.44-4.78-2.12l-.75.17a4,4,0,0,0-2.78,3.65,4.15,4.15,0,0,0,2.61,3.4,4.53,4.53,0,0,0,4.57-.69A4,4,0,0,0,548.09,305.51Z"
                style="fill:#BEF264"></path>
        </g>
    </g>

</svg>