<svg xmlns="http://www.w3.org/2000/svg" viewBox="0 0 750 500">
    <g id="freepik--background-complete--inject-2">
        <path
            d="M338.3,83.71C261.67,119,209.22,168.52,221.1,194.29s83.62,18,160.2-17.32S510.38,92.12,498.5,66.4,414.88,48.39,338.3,83.71Zm37.79,81.93c-67,30.89-129.18,38.89-138.86,17.87S274,120.45,341,89.56,470.13,50.63,479.86,71.65s-36.78,63.1-103.77,94Z"
            style="fill:#FEF08A"></path>
        <circle cx="367.27" cy="124.13" r="86.91" transform="translate(214.7 480.53) rotate(-85.5)"
            style="fill:#FEFCE8"></circle>
        <path
            d="M282.44,142.56a193.71,193.71,0,0,0,18.73-5.45c23.8-8.06,66.71-42.75,104.66-58.7,14.27-5.94,22.44-9.37,27.23-11.22a60.42,60.42,0,0,1,4.19,5.45,290.44,290.44,0,0,1-33.76,16.88c-24.18,10.13-50,23.85-64.86,36.27-11.38,9.42-40.13,21.78-53.53,26.35A70.84,70.84,0,0,1,282.44,142.56Z"
            style="fill:#FEF08A;isolation:isolate"></path>
        <path
            d="M287.28,157.91a555.77,555.77,0,0,1,66.49-12.25c37.69-4.36,52-21.07,67.36-37a103.92,103.92,0,0,1,26-18.57A69.56,69.56,0,0,1,450.7,100a262.51,262.51,0,0,1-56.9,36.1C358.13,152.85,308.57,161,290,163.63A38,38,0,0,1,287.28,157.91Z"
            style="fill:#FEF08A;isolation:isolate"></path>
        <path
            d="M306.94,186.5a302.46,302.46,0,0,0,94-28.15c24.24-11.93,41.5-21.35,53-27.88a7.4,7.4,0,0,1,0,1.63c-.27,2.56-.55,5-1,7.46-27.22,14.54-90.17,44.55-145.17,47.6C307.38,187.1,307.16,186.77,306.94,186.5Z"
            style="fill:#FEF08A;isolation:isolate"></path>
        <path
            d="M304.11,64.41a87.13,87.13,0,0,1,71.17-26.79,39.1,39.1,0,0,1,6.21.82C363,47,328.61,61.09,304.11,64.41Z"
            style="fill:#FEF08A;isolation:isolate"></path>
        <path
            d="M329.87,202.46c21.78-5.18,77.43-19.17,101.12-32.13a116.84,116.84,0,0,1,13.61-6.59,63.78,63.78,0,0,1-4.73,8.17c-16.94,7.4-49.67,21-68.13,24-16.33,2.61-30.93,5.44-39.7,7.57h0A10.09,10.09,0,0,1,329.87,202.46Z"
            style="fill:#FEF08A;isolation:isolate"></path>
        <path
            d="M403.38,53.52S371.52,73.24,357.2,75.63a174.28,174.28,0,0,1-26.3,2.45S377,54.45,403.38,53.52Z"
            style="fill:#FEF08A;isolation:isolate"></path>
        <path
            d="M470.22,63.29a17.35,17.35,0,0,1,9.64,8.59c9.69,21-36.78,63.1-103.77,94s-129.18,38.89-138.86,17.87a17.14,17.14,0,0,1,0-12.75l-16.41,7.54a22.17,22.17,0,0,0,.37,16c11.88,25.77,83.62,18,160.2-17.32S510.47,92.35,498.59,66.62A21.91,21.91,0,0,0,486.67,56Z"
            style="fill:#FEF08A"></path>
    </g>

</svg>