<svg xmlns="http://www.w3.org/2000/svg" viewBox="0 0 750 500">
    <g id="freepik--Rocks--inject-2">
        <path
            d="M153.27,397.49V356.32L165.58,339V300l-31.25-35.75L114.44,141.83H193l8.53,127.83s-11.37,27.08-9.47,42.25,9.47,33.58,9.47,33.58l31.25,76.92H151.37Z"
            style="fill:#2E1065"></path>
        <path
            d="M153.27,397.49V356.32L165.58,339V300l-31.25-35.75L114.44,141.83H193l8.53,127.83s-11.37,27.08-9.47,42.25,9.47,33.58,9.47,33.58l31.25,76.92H151.37Z"
            style="fill:#fff;opacity:0.30000000000000004"></path>
        <polygon
            points="153.27 356.32 165.58 338.99 182.34 350.27 200.65 343.15 207.28 359.55 183.16 368.36 153.27 356.32"
            style="fill:#fff;opacity:0.30000000000000004"></polygon>
        <polygon
            points="153.27 356.32 153.27 397.49 151.38 422.41 194.86 423.04 183.16 368.36 153.27 356.32"
            style="opacity:0.30000000000000004"></polygon>
        <path
            d="M182.34,350.27l-6.54-54L177,258.19c.09-.27.16-.49.2-.57a10.22,10.22,0,0,0-.12-2l0-.72-.08.24c-1.8-16.48-17.73-102.68-17.73-102.68l-45-10.56,19.89,122.41,31.25,35.75v0l.08,38.94Z"
            style="opacity:0.30000000000000004"></path>
        <polygon points="182.34 350.27 183.16 368.36 153.27 356.32 165.58 338.99 182.34 350.27"
            style="opacity:0.30000000000000004"></polygon>
        <polygon points="193.04 141.83 159.33 152.49 114.35 141.93 193.04 141.83"
            style="fill:#fff;opacity:0.30000000000000004"></polygon>
        <polygon
            points="114.44 114.55 154.95 130.44 195.47 127.61 179.82 98.82 151.04 86.43 125.32 89.42 114.44 114.55"
            style="fill:#2E1065"></polygon>
        <polygon
            points="114.44 114.55 154.95 130.44 195.47 127.61 179.82 98.82 151.04 86.43 125.32 89.42 114.44 114.55"
            style="fill:#fff;opacity:0.30000000000000004"></polygon>
        <polygon points="125.32 89.42 146.03 93.09 179.82 98.82 151.04 86.43 125.32 89.42"
            style="fill:#fff;opacity:0.30000000000000004"></polygon>
        <polygon points="114.51 114.55 155.94 114.55 195.47 127.61 154.95 130.44 114.51 114.55"
            style="opacity:0.4"></polygon>
        <polygon points="155.94 114.55 146.03 93.09 125.32 89.42 114.44 114.55 155.94 114.55"
            style="opacity:0.2"></polygon>
        <polygon
            points="33.22 423.49 49.9 373.37 57.35 367.7 67.29 325.43 79.36 315.84 93.55 315.84 92.13 362.04 97.1 378.6 93.2 423.49 33.22 423.49"
            style="fill:#2E1065"></polygon>
        <polygon
            points="33.22 423.49 49.9 373.37 57.35 367.7 67.29 325.43 79.36 315.84 93.55 315.84 92.13 362.04 97.1 378.6 93.2 423.49 33.22 423.49"
            style="fill:#fff;opacity:0.30000000000000004"></polygon>
        <polygon
            points="49.9 373.37 71.84 381.98 66.01 403.94 66.19 423.49 33.22 423.49 49.9 373.37"
            style="opacity:0.30000000000000004"></polygon>
        <polygon points="57.35 367.7 75.79 371.35 86.33 320.5 79.36 315.84 67.29 325.43 57.35 367.7"
            style="opacity:0.30000000000000004"></polygon>
        <polygon points="93.55 315.84 86.33 320.5 79.36 315.84 93.55 315.84"
            style="fill:#fff;opacity:0.30000000000000004"></polygon>
        <polygon
            points="92.13 362.04 93.56 366.78 92.13 373.37 71.84 381.98 49.9 373.37 57.35 367.7 75.79 371.35 91.08 364.41 92.13 362.04"
            style="fill:#fff;opacity:0.30000000000000004"></polygon>
        <polygon
            points="72.1 303.32 72.1 285.5 85.79 280.74 92.29 284.71 83.14 309 80.61 309.63 72.1 303.32"
            style="fill:#2E1065"></polygon>
        <polygon
            points="72.1 303.32 72.1 285.5 85.79 280.74 92.29 284.71 83.14 309 80.61 309.63 72.1 303.32"
            style="fill:#fff;opacity:0.30000000000000004"></polygon>
        <polygon points="72.1 303.32 83.19 301 83.14 309 80.61 309.63 72.1 303.32"
            style="opacity:0.30000000000000004"></polygon>
        <path d="M85.79,280.73,83.19,301l0,8c.16.17,9.15-24.29,9.15-24.29Z" style="opacity:0.4"></path>
        <polygon
            points="672.58 308.94 684.62 316.01 691.73 307.8 696.51 292.05 683.85 285.28 669.37 287.55 672.58 308.94"
            style="fill:#2E1065"></polygon>
        <polygon
            points="672.58 308.94 684.62 316.01 691.73 307.8 696.51 292.05 683.85 285.28 669.37 287.55 672.58 308.94"
            style="fill:#fff;opacity:0.30000000000000004"></polygon>
        <polygon points="669.37 287.55 679.68 289.31 696.51 292.05 683.85 285.28 669.37 287.55"
            style="fill:#fff;opacity:0.30000000000000004"></polygon>
        <polygon points="672.61 308.94 680.23 304.85 691.73 307.8 684.62 316.01 672.61 308.94"
            style="opacity:0.4"></polygon>
        <polygon points="680.23 304.85 679.68 289.31 669.37 287.55 672.58 308.94 680.23 304.85"
            style="opacity:0.2"></polygon>
        <polygon
            points="616.48 421.99 641.31 353.77 652.4 346.06 653.83 323.79 681.73 320.88 702.93 328.47 704.17 338.35 704.17 362.72 705.75 421.99 616.48 421.99"
            style="fill:#2E1065"></polygon>
        <polygon
            points="616.48 421.99 641.31 353.77 652.4 346.06 653.83 323.79 681.73 320.88 702.93 328.47 704.17 338.35 704.17 362.72 705.75 421.99 616.48 421.99"
            style="fill:#fff;opacity:0.30000000000000004"></polygon>
        <polygon
            points="641.15 353.77 673.81 365.49 665.12 395.38 665.4 421.99 616.33 421.99 641.15 353.77"
            style="opacity:0.30000000000000004"></polygon>
        <polygon
            points="652.4 346.06 679.85 351.02 702.61 341.58 704.17 338.35 704.17 349.07 673.97 365.49 641.31 353.77 652.4 346.06"
            style="fill:#fff;opacity:0.30000000000000004"></polygon>
        <path
            d="M702.93,328.47c-.53-.19-21.32.81-21.32.81s-1.88,11.53-1.88,11.15V329l-25.9-5.24,27.9-2.91Z"
            style="fill:#fff;opacity:0.30000000000000004"></path>
    </g>

</svg>